PathFileType	4	(X/Y/Z)	D:\TRACE\v60_Jaco2_6-2-23\JustArmDRS_Motion1_2-v60.trc
DataRate	CameraRate	NumFrames	NumMarkers	Units	OrigDataRate	OrigDataStartFrame	OrigNumFrames
100.00	100.00	      17	9	mm	100.00	3405	      6808
Frame#	Time	front left toe			Front right toe			aft left toe			aft right toe			Arm			FL body			FR body			AL Body			AR Body			
		X1	Y1	Z1	X2	Y2	Z2	X3	Y3	Z3	X4	Y4	Z4	X5	Y5	Z5	X6	Y6	Z6	X7	Y7	Z7	X8	Y8	Z8	X9	Y9	Z9	

3405	34.040	-165.57021	11.23960	-172.94257	242.08821	8.29814	-217.31873	-99.20819	32.53667	432.03308	303.10001	36.40046	420.47244	39.00513	1108.74780	-676.41168	-56.21651	572.72900	-327.35999	103.74602	572.25830	-344.01813	39.55919	602.93945	612.72681	196.06233	597.25012	598.38586	
3406	34.050	-165.09331	11.41406	-172.89091	242.75600	8.38608	-217.20161	-98.56773	32.50347	432.10709	303.75711	36.28368	420.49792	40.36069	1108.89233	-676.13214	-55.07759	572.79266	-327.29095	103.98235	572.20087	-343.89313	40.56250	602.88281	612.84467	197.27011	596.95563	598.38776	
3407	34.060	-164.46532	11.43231	-172.95680	243.44122	8.49816	-217.18768	-97.68678	32.47148	432.25467	304.17102	36.00364	420.53534	41.43274	1108.99536	-676.07635	-54.07381	572.80701	-327.27255	105.21631	572.03229	-343.43457	41.71130	602.93274	612.86499	198.20723	596.72278	598.12573	
3408	34.070	-163.50403	11.34999	-173.09174	244.12904	8.41107	-217.13184	-97.01815	32.47222	432.27328	305.35187	36.08146	420.59537	42.60357	1109.06763	-675.95215	-53.30270	572.76770	-327.35312	106.09538	572.07874	-343.45935	42.54020	602.90302	612.91504	198.41232	596.36279	598.42603	
3409	34.080	-162.78978	11.51930	-173.03455	244.96103	8.46093	-217.06949	-96.30698	32.28164	432.26126	306.04617	35.97581	420.41431	43.93830	1108.98694	-675.79541	-52.28951	572.71631	-327.16315	108.08134	572.23639	-343.55450	43.42264	602.89606	613.02521	199.21022	596.09259	598.49585	
3410	34.090	-162.09669	11.84381	-172.97922	245.71811	8.59279	-217.18440	-95.58922	32.14024	432.32697	306.69064	35.85573	420.53055	44.69367	1109.02576	-675.77185	-51.22873	572.71625	-326.90176	107.98721	572.15942	-343.38492	44.33249	602.80823	613.11462	200.43576	596.00983	598.86328	
3411	34.100	-161.41434	11.86442	-172.96863	246.50549	8.68789	-217.13908	-94.69051	32.06328	432.41406	307.43414	35.84482	420.71545	46.06752	1108.83044	-675.78296	-50.09633	572.63544	-327.06866	109.29033	572.05603	-343.31534	45.22466	602.52710	613.15326	201.23291	596.04749	598.90552	
3412	34.110	-160.68748	11.75523	-172.91885	247.18156	8.73513	-217.16975	-94.06981	32.09027	432.49252	308.12927	35.62769	420.68961	47.31775	1108.74304	-675.46429	-48.80885	572.40668	-326.65369	109.96941	571.80884	-342.66040	46.15394	602.28290	613.25128	202.11536	595.89417	598.86182	
3413	34.120	-159.91547	11.81920	-172.81746	247.77881	8.81861	-217.09184	-93.37120	32.01032	432.46091	308.70068	35.37679	420.76584	48.32381	1108.82837	-675.44421	-48.12975	572.66675	-326.80649	111.52836	571.93719	-343.27426	46.81286	602.23358	613.36743	203.19444	595.76392	598.90308	
3414	34.130	-159.60295	11.99301	-172.85770	248.43272	8.76570	-217.00473	-92.92926	31.94044	432.43936	309.19208	35.27525	420.74536	49.52341	1108.83142	-675.23499	-47.11706	572.75647	-326.75314	112.72467	571.75183	-343.21658	47.87150	602.05591	613.56934	204.25487	595.52979	598.96820	
3415	34.140	-159.01709	12.13536	-172.91420	249.16875	8.87053	-216.93481	-92.09146	31.81512	432.52148	310.28290	35.30211	420.92572	50.89327	1108.84692	-674.99475	-46.53460	572.81238	-326.59341	112.90175	571.49475	-342.88986	48.85438	601.96130	613.70386	204.68524	594.87805	598.97339	
3416	34.150	-158.30151	12.26324	-172.86810	249.72568	8.98585	-216.83258	-91.45036	31.61522	432.52557	310.87683	35.11891	420.99850	51.67606	1108.79333	-675.06348	-45.39679	572.59375	-326.66309	113.92691	571.46417	-342.74417	49.38749	601.81281	613.47211	205.41710	594.67090	599.32690	
3417	34.160	-157.53162	12.12610	-172.83957	250.39523	9.07913	-216.67703	-90.86423	31.57061	432.61346	311.15295	34.76020	420.94009	53.37674	1108.79797	-674.79956	-44.50925	572.48883	-326.58362	115.26791	571.55090	-342.87296	50.84925	601.69006	613.44067	206.90764	595.10406	599.71381	
3418	34.170	-156.91006	12.16972	-172.68655	250.89612	9.03032	-216.68582	-90.32150	31.49265	432.66083	311.70300	34.54361	420.86017	54.86853	1108.64734	-674.58905	-43.64878	572.61560	-326.25864	115.86731	571.63330	-343.39890	51.44114	601.77570	613.84528	207.61641	594.97986	599.83234	
3419	34.180	-156.34534	12.21047	-172.67348	251.44505	9.08717	-216.72768	-89.75758	31.47323	432.75064	312.49908	34.52225	420.96094	55.64843	1108.67334	-674.50433	-42.77646	572.80414	-326.28503	117.55312	571.64960	-342.79733	51.99148	601.75128	613.96405	209.12506	594.78278	599.69849	
3420	34.190	-155.71960	12.41617	-172.64526	252.15273	9.13613	-216.54933	-89.03700	31.46641	432.80844	313.18262	34.55908	421.15836	57.11980	1108.93030	-674.13776	-41.86485	572.99121	-326.29489	117.57622	571.53101	-342.35483	52.93046	601.56812	614.09851	209.37283	594.63385	599.66669	
3421	34.200	-155.23560	12.57649	-172.62961	252.68297	9.14068	-216.42627	-88.36634	31.34942	432.79623	313.58554	34.40258	421.23001	58.26689	1109.22131	-674.01050	-41.28325	573.21539	-326.17288	118.55375	571.57141	-342.17709	53.82268	601.51434	614.26013	209.92903	594.30603	599.89050	
